<svg xmlns="http://www.w3.org/2000/svg">
    <symbol id="close" viewBox="0 0 24 24">
         <path d="m13.4 12 5.7-5.7L17.7 5 12 10.6 6.3 4.9 5 6.3l5.7 5.7-5.7 5.7L6.3 19l5.7-5.7 5.7 5.7 1.4-1.4-5.7-5.7Z" />
    </symbol>
    <symbol id="logo" viewBox="0 0 152 23">
          <path d="M5.912 21.36C5.22933 22.0427 4.42933 22.384 3.512 22.384C2.59467 22.384 1.79467 22.0427 1.112 21.36C0.429333 20.6773 0.0880001 19.8773 0.0880001 18.96C0.0880001 18.0427 0.429333 17.2427 1.112 16.56C1.79467 15.8773 2.59467 15.536 3.512 15.536C4.42933 15.536 5.22933 15.8773 5.912 16.56C6.59467 17.2427 6.936 18.0427 6.936 18.96C6.936 19.8773 6.59467 20.6773 5.912 21.36ZM19.4545 22H12.9905V0.655998H19.4545V22ZM46.6408 22H40.4328L32.5608 11.184V22H26.0967V0.655998H32.7528L40.1768 10.768V0.655998H46.6408V22ZM72.1447 19.312C69.9261 21.36 67.1527 22.384 63.8247 22.384C60.4967 22.384 57.7127 21.36 55.4727 19.312C53.2541 17.2427 52.1447 14.5867 52.1447 11.344C52.1447 8.10133 53.2541 5.456 55.4727 3.408C57.7127 1.33867 60.4967 0.303999 63.8247 0.303999C67.1527 0.303999 69.9261 1.33867 72.1447 3.408C74.3847 5.456 75.5047 8.10133 75.5047 11.344C75.5047 14.5867 74.3847 17.2427 72.1447 19.312ZM60.1127 15.152C61.0727 16.176 62.3101 16.688 63.8247 16.688C65.3394 16.688 66.5661 16.176 67.5047 15.152C68.4647 14.128 68.9447 12.8587 68.9447 11.344C68.9447 9.82933 68.4647 8.56 67.5047 7.536C66.5661 6.512 65.3394 6 63.8247 6C62.3101 6 61.0727 6.512 60.1127 7.536C59.1741 8.56 58.7047 9.82933 58.7047 11.344C58.7047 12.8587 59.1741 14.128 60.1127 15.152ZM91.5888 22.384C88.2181 22.384 85.4128 21.36 83.1728 19.312C80.9541 17.2427 79.8448 14.5867 79.8448 11.344C79.8448 8.08 80.9541 5.424 83.1728 3.376C85.3914 1.328 88.1968 0.303999 91.5888 0.303999C94.1488 0.303999 96.2074 0.901332 97.7648 2.096C99.3434 3.29067 100.517 4.76267 101.285 6.512L95.7168 9.104C95.4394 8.25067 94.9168 7.52533 94.1488 6.928C93.3808 6.30933 92.5274 6 91.5888 6C90.0528 6 88.8048 6.512 87.8448 7.536C86.8848 8.56 86.4048 9.82933 86.4048 11.344C86.4048 12.8587 86.8848 14.128 87.8448 15.152C88.8048 16.176 90.0528 16.688 91.5888 16.688C92.5274 16.688 93.3808 16.3893 94.1488 15.792C94.9168 15.1733 95.4394 14.4373 95.7168 13.584L101.285 16.144C100.943 16.9333 100.517 17.6693 100.005 18.352C99.4928 19.0133 98.8528 19.664 98.0848 20.304C97.3168 20.944 96.3674 21.456 95.2368 21.84C94.1274 22.2027 92.9114 22.384 91.5888 22.384ZM127.765 22H120.437L119.669 19.504H111.989L111.221 22H103.893L111.765 0.655998H119.893L127.765 22ZM117.941 13.872L115.829 6.992L113.717 13.872H117.941ZM151.219 22H143.859L140.915 15.28H138.579V22H132.115V0.655998H143.507C145.918 0.655998 147.795 1.36 149.139 2.768C150.505 4.15467 151.187 5.89333 151.187 7.984C151.187 9.648 150.803 11.0133 150.035 12.08C149.289 13.1467 148.393 13.936 147.347 14.448L151.219 22ZM142.515 9.648C143.113 9.648 143.614 9.50933 144.019 9.232C144.425 8.93333 144.627 8.50667 144.627 7.952C144.627 7.41867 144.425 7.01333 144.019 6.736C143.614 6.43733 143.113 6.288 142.515 6.288H138.579V9.648H142.515Z" fill="white"/>
    </symbol>
</svg>
